<svg width="1279" height="430" viewBox="0 0 1279 430" fill="none" xmlns="http://www.w3.org/2000/svg">
	<rect width="1279" height="430" fill="url(#paint0_linear)" />
	<path d="M511.812 257.396C511.812 259.132 510.783 260 508.725 260H494.193C492.66 260 490.964 259.455 489.107 258.365C487.291 257.235 485.898 255.883 484.93 254.309L474.637 238.203C470.398 231.583 465.272 228.273 459.258 228.273H444.484V254.309C444.484 255.883 443.919 257.235 442.789 258.365C441.699 259.455 440.367 260 438.793 260H427.41C425.836 260 424.484 259.455 423.354 258.365C422.223 257.235 421.658 255.883 421.658 254.309V178.928C421.658 177.354 422.203 176.001 423.293 174.871C424.383 173.741 425.715 173.176 427.289 173.176H477.24C486.484 173.176 494.052 175.658 499.945 180.623C505.879 185.588 508.846 192.288 508.846 200.725C508.846 212.471 501.237 219.837 486.02 222.824C488.441 223.712 490.682 225.246 492.74 227.426C494.799 229.565 497.16 232.693 499.824 236.811L510.844 254.309C511.49 255.439 511.812 256.468 511.812 257.396ZM444.484 211.139H470.277C474.435 211.139 478.088 210.311 481.236 208.656C484.425 207.001 486.02 204.357 486.02 200.725C486.02 197.092 484.425 194.448 481.236 192.793C478.088 191.138 474.435 190.311 470.277 190.311H444.484V211.139ZM525.678 252.371C519.462 246.478 516.354 238.001 516.354 226.941C516.354 215.841 519.482 207.324 525.738 201.391C531.995 195.417 540.673 192.43 551.773 192.43C562.874 192.43 571.532 195.336 577.748 201.148C583.964 206.921 587.072 215.215 587.072 226.033V229.484C587.072 230.574 586.709 231.482 585.982 232.209C585.296 232.895 584.408 233.238 583.318 233.238H537.727C538.13 238.203 539.543 241.816 541.965 244.076C544.427 246.337 548.342 247.467 553.711 247.467C559.079 247.467 562.753 246.256 564.73 243.834C566.708 241.412 569.15 240.181 572.057 240.141H581.078C582.168 240.141 583.056 240.504 583.742 241.23C584.469 241.917 584.832 242.805 584.832 243.895C584.832 255.479 573.792 261.251 551.713 261.211C540.572 261.211 531.894 258.264 525.678 252.371ZM537.605 220.463H565.76C565.356 210.937 560.674 206.174 551.713 206.174C542.792 206.174 538.09 210.937 537.605 220.463ZM602.451 255.641C597.123 251.927 594.459 246.68 594.459 239.898C594.459 233.117 597.123 227.91 602.451 224.277C607.82 220.645 614.722 218.828 623.158 218.828H643.199C643.199 214.105 642.21 210.816 640.232 208.959C638.255 207.102 634.783 206.174 629.818 206.174C624.894 206.174 621.423 207.405 619.404 209.867C617.426 212.289 614.984 213.5 612.078 213.5H603.057C601.967 213.5 601.059 213.157 600.332 212.471C599.646 211.744 599.303 210.856 599.303 209.807C599.303 198.222 610.302 192.43 632.301 192.43C641.908 192.43 649.617 194.589 655.43 198.908C661.242 203.187 664.148 209.827 664.148 218.828V256.307C664.148 257.396 663.805 258.285 663.119 258.971C662.433 259.657 661.545 260 660.455 260H648.77C647.68 260 646.792 259.657 646.105 258.971C645.419 258.244 645.076 257.356 645.076 256.307V254.43C638.699 258.991 631.332 261.251 622.977 261.211C614.661 261.211 607.82 259.354 602.451 255.641ZM624.611 232.572C621.786 232.572 619.546 233.258 617.891 234.631C616.276 236.003 615.469 237.779 615.469 239.959C615.469 242.139 616.316 243.935 618.012 245.348C619.707 246.76 622.109 247.467 625.217 247.467C631.433 247.467 637.427 245.65 643.199 242.018V232.572H624.611ZM711.193 261.211C699.891 261.211 691.092 258.305 684.795 252.492C678.498 246.68 675.35 238.143 675.35 226.881C675.35 215.579 678.478 207.021 684.734 201.209C690.991 195.356 699.689 192.43 710.83 192.43C722.011 192.43 730.589 194.206 736.562 197.758C742.577 201.31 745.584 206.557 745.584 213.5C745.584 214.59 745.221 215.478 744.494 216.164C743.808 216.85 742.92 217.193 741.83 217.193H732.809C730.064 217.193 727.743 215.72 725.846 212.773C723.464 208.979 719.246 207.082 713.191 207.082C707.177 207.082 702.959 208.636 700.537 211.744C698.156 214.812 696.965 219.837 696.965 226.82C696.965 233.803 698.196 238.849 700.658 241.957C703.161 245.065 707.48 246.619 713.615 246.619C719.791 246.619 724.07 244.722 726.451 240.928C728.348 237.941 730.669 236.447 733.414 236.447H742.436C743.525 236.447 744.413 236.811 745.1 237.537C745.826 238.223 746.189 239.091 746.189 240.141C746.189 247.083 743.182 252.331 737.168 255.883C731.194 259.435 722.536 261.211 711.193 261.211ZM787.725 246.861L796.02 246.135H798.26C799.35 246.135 800.238 246.478 800.924 247.164C801.65 247.85 802.014 248.738 802.014 249.828V256.307C802.014 257.195 801.65 258.002 800.924 258.729C800.238 259.415 799.35 259.839 798.26 260C794.143 260.807 788.774 261.211 782.154 261.211C764.798 261.211 756.119 252.129 756.119 233.965V176.93C756.119 175.84 756.462 174.952 757.148 174.266C757.875 173.539 758.763 173.176 759.812 173.176H773.375C774.424 173.176 775.292 173.539 775.979 174.266C776.705 174.952 777.068 175.84 777.068 176.93V197.152H793.961C795.01 197.152 795.878 197.495 796.564 198.182C797.291 198.868 797.654 199.756 797.654 200.846V208.051C797.654 209.141 797.291 210.029 796.564 210.715C795.878 211.401 795.01 211.744 793.961 211.744H777.068V233.965C777.068 238.082 778.037 241.271 779.975 243.531C781.912 245.751 784.495 246.861 787.725 246.861ZM862.863 249.768C855.396 242.623 851.662 231.583 851.662 216.648C851.662 201.673 855.396 190.613 862.863 183.469C870.371 176.284 881.613 172.691 896.588 172.691H910.09C919.253 172.691 927.346 175.073 934.369 179.836C941.433 184.599 944.965 191.118 944.965 199.393C944.965 201.774 944.258 203.49 942.846 204.539C941.433 205.548 940.061 206.053 938.729 206.053H931.523C927.81 206.053 924.924 203.833 922.865 199.393C919.878 193.015 914.913 189.826 907.971 189.826H897.193C888.354 189.826 882.359 191.723 879.211 195.518C876.062 199.312 874.488 206.335 874.488 216.588C874.488 226.84 876.062 233.884 879.211 237.719C882.359 241.513 888.354 243.41 897.193 243.41H909.242C916.185 243.41 921.13 240.221 924.076 233.844C926.135 229.363 929.041 227.123 932.795 227.123H940C941.897 227.123 943.391 227.829 944.48 229.242C945.611 230.655 946.176 232.189 946.176 233.844C946.176 242.118 942.664 248.637 935.641 253.4C928.617 258.123 920.524 260.484 911.361 260.484H896.588C881.613 260.484 870.371 256.912 862.863 249.768ZM957.982 254.43V179.049C957.982 177.394 958.548 176.001 959.678 174.871C960.808 173.741 962.16 173.176 963.734 173.176H975.117C976.691 173.176 978.023 173.741 979.113 174.871C980.243 176.001 980.809 177.394 980.809 179.049V242.865H1033.54C1035.12 242.865 1036.45 243.43 1037.54 244.561C1038.67 245.691 1039.24 247.043 1039.24 248.617V254.309C1039.24 255.883 1038.67 257.235 1037.54 258.365C1036.45 259.455 1035.12 260 1033.54 260H963.734C962.16 260 960.808 259.475 959.678 258.426C958.548 257.336 957.982 256.004 957.982 254.43ZM1049.17 254.43V178.928C1049.17 177.354 1049.73 176.001 1050.86 174.871C1051.99 173.741 1053.34 173.176 1054.92 173.176H1066.18C1067.83 173.176 1069.21 173.741 1070.3 174.871C1071.43 176.001 1071.99 177.354 1071.99 178.928V254.309C1071.99 255.883 1071.41 257.235 1070.24 258.365C1069.11 259.455 1067.75 260 1066.18 260H1054.92C1053.34 260 1051.99 259.475 1050.86 258.426C1049.73 257.336 1049.17 256.004 1049.17 254.43Z" fill="white" />
	<path d="M343.481 152.588H219.195C213.475 152.588 208.838 157.232 208.838 162.963V266.713C208.838 272.443 213.475 277.088 219.195 277.088H343.481C349.202 277.088 353.838 272.443 353.838 266.713V162.963C353.838 157.232 349.202 152.588 343.481 152.588ZM229.552 225.213L250.267 204.463L229.552 183.713L239.91 173.338L270.981 204.463L239.91 235.588L229.552 225.213ZM312.41 235.588H270.981V225.213H312.41V235.588Z" fill="white" />
	<defs>
		<linearGradient id="paint0_linear" x1="606.727" y1="430" x2="606.727" y2="0" gradientUnits="userSpaceOnUse">
			<stop stop-color="#0D141E" />
			<stop offset="1" stop-color="#1E2432" />
		</linearGradient>
	</defs>
</svg>
